<?xml version="1.0" encoding="UTF-8"?>
<svg width="1024" height="1024" viewBox="0 0 1024 1024" xmlns="http://www.w3.org/2000/svg">

  <!-- Back panel -->
  <path d="
    M 640 160
    L 700 200
    C 760 240, 760 784, 700 824
    L 640 864
    C 600 892, 560 860, 560 512
    C 560 164, 600 132, 640 160 Z"
    fill="#FF8C1A"/>

  <!-- Middle panel -->
  <path d="
    M 560 150
    L 620 190
    C 680 230, 680 794, 620 834
    L 560 874
    C 520 902, 480 870, 480 512
    C 480 154, 520 122, 560 150 Z"
    fill="#F1B687"/>

  <!-- Front panel -->
  <path d="
    M 460 140
    L 520 180
    C 580 220, 580 804, 520 844
    L 460 884
    C 400 924, 340 880, 340 512
    C 340 144, 400 100, 460 140 Z"
    fill="#E6D8CC"/>

</svg>
