<svg viewBox="0 0 512 512" xmlns="http://www.w3.org/2000/svg">
  <circle fill="#0082C9" cx="256" cy="256" r="256"/>
  <path fill="white" d="M256 96c-88.4 0-160 71.6-160 160s71.6 160 160 160 160-71.6 160-160S344.4 96 256 96zm0 280c-66.3 0-120-53.7-120-120s53.7-120 120-120 120 53.7 120 120-53.7 120-120 120z"/>
  <circle fill="white" cx="200" cy="220" r="24"/>
  <circle fill="white" cx="256" cy="200" r="24"/>
  <circle fill="white" cx="312" cy="220" r="24"/>
  <circle fill="white" cx="200" cy="292" r="24"/>
  <circle fill="white" cx="256" cy="312" r="24"/>
  <circle fill="white" cx="312" cy="292" r="24"/>
</svg>
