<svg width="800" height="450" viewBox="0 0 800 450" fill="none" xmlns="http://www.w3.org/2000/svg">
  <defs>
    <linearGradient id="hl-bg" x1="80" y1="40" x2="720" y2="410" gradientUnits="userSpaceOnUse">
      <stop stop-color="#0B1220"/>
      <stop offset="1" stop-color="#0F2134"/>
    </linearGradient>
    <linearGradient id="hl-line" x1="0" y1="0" x2="1" y2="1">
      <stop stop-color="#00BBF9"/>
      <stop offset="1" stop-color="#8338EC"/>
    </linearGradient>
    <radialGradient id="hl-dot" cx="0.5" cy="0.5" r="0.5">
      <stop stop-color="#00F5D4"/>
      <stop offset="1" stop-color="#FF006E"/>
    </radialGradient>
  </defs>
  <rect width="800" height="450" rx="28" fill="url(#hl-bg)"/>
  <rect x="52" y="42" width="696" height="366" rx="22" fill="#0F172A" stroke="rgba(255,255,255,0.08)" stroke-width="1.5"/>
  <rect x="96" y="82" width="608" height="292" rx="20" fill="#0B1828" stroke="rgba(255,255,255,0.06)" stroke-width="1.5"/>

  <g>
    <rect x="150" y="104" width="500" height="68" rx="16" fill="#0D2133" stroke="#12324C" stroke-width="1.5"/>
    <rect x="172" y="120" width="26" height="10" rx="5" fill="#FF006E"/>
    <rect x="206" y="120" width="26" height="10" rx="5" fill="#FFC700"/>
    <rect x="240" y="120" width="26" height="10" rx="5" fill="#00F5D4"/>
    <text x="400" y="137" text-anchor="middle" fill="#E2E8F0" font-family="Segoe UI, Arial, sans-serif" font-size="22" font-weight="700">Homelab · Raspberry Pi 5</text>
    <text x="400" y="158" text-anchor="middle" fill="#B8C6D8" font-family="Segoe UI, Arial, sans-serif" font-size="13" letter-spacing="0.4">docker compose · reverse proxy · monitoring</text>
  </g>

  <g>
    <rect x="146" y="188" width="508" height="64" rx="14" fill="#0E1E31" stroke="#12324C" stroke-width="1.2"/>
    <rect x="174" y="210" width="110" height="14" rx="7" fill="#00BBF9"/>
    <rect x="304" y="210" width="190" height="14" rx="7" fill="#1E2E46" opacity="0.75"/>
    <rect x="520" y="210" width="100" height="14" rx="7" fill="#1E2E46" opacity="0.55"/>
    <path d="M220 236 C330 254 470 248 560 226" stroke="url(#hl-line)" stroke-width="3" stroke-dasharray="10 10" stroke-linecap="round" opacity="0.65"/>
    <circle cx="220" cy="236" r="9" fill="url(#hl-dot)"/>
    <circle cx="560" cy="226" r="9" fill="url(#hl-dot)"/>
  </g>

  <g>
    <rect x="146" y="268" width="508" height="64" rx="14" fill="#0E1E31" stroke="#12324C" stroke-width="1.2"/>
    <rect x="174" y="290" width="110" height="14" rx="7" fill="#FF006E"/>
    <rect x="304" y="290" width="168" height="14" rx="7" fill="#1E2E46" opacity="0.75"/>
    <rect x="502" y="290" width="130" height="14" rx="7" fill="#1E2E46" opacity="0.55"/>
    <path d="M206 316 C280 340 452 346 534 320" stroke="#00BBF9" stroke-width="3" stroke-dasharray="9 9" stroke-linecap="round" opacity="0.65"/>
    <circle cx="206" cy="316" r="9" fill="url(#hl-dot)"/>
    <circle cx="534" cy="320" r="9" fill="url(#hl-dot)"/>
  </g>

  <g>
    <rect x="146" y="350" width="508" height="26" rx="11" fill="#102338" stroke="#12324C" stroke-width="1.2"/>
    <text x="260" y="367" text-anchor="middle" fill="#9FB1C6" font-family="Segoe UI, Arial, sans-serif" font-size="12">infra</text>
    <text x="400" y="367" text-anchor="middle" fill="#9FB1C6" font-family="Segoe UI, Arial, sans-serif" font-size="12">media</text>
    <text x="540" y="367" text-anchor="middle" fill="#9FB1C6" font-family="Segoe UI, Arial, sans-serif" font-size="12">network</text>
  </g>
</svg>
