<svg width="800" height="450" viewBox="0 0 800 450" fill="none" xmlns="http://www.w3.org/2000/svg">
  <defs>
    <linearGradient id="lw-bg" x1="80" y1="40" x2="720" y2="400" gradientUnits="userSpaceOnUse">
      <stop stop-color="#0A0F1F"/>
      <stop offset="1" stop-color="#0F2437"/>
    </linearGradient>
    <linearGradient id="lw-arc" x1="0" y1="0" x2="1" y2="1">
      <stop stop-color="#00BBF9"/>
      <stop offset="1" stop-color="#8338EC"/>
    </linearGradient>
    <radialGradient id="lw-dot" cx="0.5" cy="0.5" r="0.5">
      <stop stop-color="#00F5D4"/>
      <stop offset="1" stop-color="#FF006E"/>
    </radialGradient>
  </defs>
  <rect width="800" height="450" rx="28" fill="url(#lw-bg)"/>
  <rect x="52" y="42" width="696" height="366" rx="22" fill="#0F172A" stroke="rgba(255,255,255,0.08)" stroke-width="1.5"/>
  <rect x="84" y="74" width="632" height="302" rx="18" fill="#0B1828" stroke="rgba(255,255,255,0.05)" stroke-width="1.2"/>

  <text x="400" y="124" text-anchor="middle" fill="#E2E8F0" font-family="Segoe UI, Arial, sans-serif" font-size="22" font-weight="700">Lone Wolf · synthetic testbed</text>
  <text x="400" y="144" text-anchor="middle" fill="#B8C6D8" font-family="Segoe UI, Arial, sans-serif" font-size="12" letter-spacing="0.4">navigation · autonomy · safety nets</text>

  <circle cx="400" cy="235" r="150" fill="rgba(0,187,249,0.08)" stroke="#12324C" stroke-width="2"/>
  <circle cx="400" cy="235" r="110" stroke="#12324C" stroke-width="2" stroke-dasharray="6 10" opacity="0.6"/>
  <circle cx="400" cy="235" r="70" stroke="#12324C" stroke-width="2" stroke-dasharray="4 8" opacity="0.45"/>

  <path d="M400 235 L570 190" stroke="url(#lw-arc)" stroke-width="6" stroke-linecap="round"/>
  <path d="M400 235 C470 210 520 205 560 208" stroke="#00BBF9" stroke-width="3" stroke-linecap="round" stroke-dasharray="10 10" opacity="0.7"/>
  <circle cx="570" cy="190" r="12" fill="url(#lw-dot)" stroke="#1E2E46" stroke-width="3"/>
  <circle cx="520" cy="230" r="9" fill="#00F5D4" stroke="#1E2E46" stroke-width="3"/>
  <circle cx="450" cy="260" r="8" fill="#00BBF9" stroke="#1E2E46" stroke-width="3"/>
  <circle cx="355" cy="215" r="7" fill="#FF006E" stroke="#1E2E46" stroke-width="3"/>

  <path d="M230 210 C280 170 320 165 355 215" stroke="#8338EC" stroke-width="3" stroke-linecap="round" stroke-dasharray="8 12" opacity="0.65"/>
  <path d="M520 280 C480 260 430 255 380 270" stroke="#00BBF9" stroke-width="3" stroke-linecap="round" stroke-dasharray="8 12" opacity="0.65"/>

  <rect x="140" y="320" width="160" height="28" rx="10" fill="#102338" stroke="#12324C" stroke-width="1.1"/>
  <rect x="320" y="320" width="160" height="28" rx="10" fill="#102338" stroke="#12324C" stroke-width="1.1"/>
  <rect x="500" y="320" width="160" height="28" rx="10" fill="#102338" stroke="#12324C" stroke-width="1.1"/>

  <text x="220" y="338" text-anchor="middle" fill="#9FB1C6" font-family="Segoe UI, Arial, sans-serif" font-size="12">sim sensors</text>
  <text x="400" y="338" text-anchor="middle" fill="#9FB1C6" font-family="Segoe UI, Arial, sans-serif" font-size="12">control loops</text>
  <text x="580" y="338" text-anchor="middle" fill="#9FB1C6" font-family="Segoe UI, Arial, sans-serif" font-size="12">safety cases</text>
</svg>
