<svg width="800" height="450" viewBox="0 0 800 450" fill="none" xmlns="http://www.w3.org/2000/svg">
  <defs>
    <linearGradient id="ps-bg" x1="80" y1="40" x2="720" y2="400" gradientUnits="userSpaceOnUse">
      <stop stop-color="#0B1220"/>
      <stop offset="1" stop-color="#102538"/>
    </linearGradient>
    <linearGradient id="ps-accent" x1="0" y1="0" x2="1" y2="1">
      <stop stop-color="#00BBF9"/>
      <stop offset="1" stop-color="#FF006E"/>
    </linearGradient>
  </defs>
  <rect width="800" height="450" rx="28" fill="url(#ps-bg)"/>
  <rect x="52" y="44" width="696" height="362" rx="22" fill="#0F172A" stroke="rgba(255,255,255,0.08)" stroke-width="1.5"/>
  <rect x="88" y="80" width="624" height="290" rx="18" fill="#0B1828" stroke="rgba(255,255,255,0.06)" stroke-width="1.5"/>

  <g>
    <rect x="120" y="106" width="560" height="54" rx="14" fill="#0D2033" stroke="#12324C" stroke-width="1.2"/>
    <rect x="144" y="121" width="20" height="20" rx="6" fill="#00BBF9" opacity="0.85"/>
    <text x="400" y="134" text-anchor="middle" fill="#E2E8F0" font-family="Segoe UI, Arial, sans-serif" font-size="22" font-weight="700">garberg.wtf · personal site</text>
    <text x="400" y="152" text-anchor="middle" fill="#B8C6D8" font-family="Segoe UI, Arial, sans-serif" font-size="12" letter-spacing="0.4">portfolio · tools · analytics</text>
  </g>

  <g>
    <rect x="120" y="184" width="320" height="180" rx="14" fill="#10243B" stroke="#12324C" stroke-width="1.2"/>
    <rect x="140" y="204" width="120" height="16" rx="8" fill="#1E2E46"/>
    <rect x="140" y="228" width="220" height="12" rx="6" fill="#1E2E46" opacity="0.8"/>
    <rect x="140" y="248" width="220" height="12" rx="6" fill="#1E2E46" opacity="0.6"/>
    <rect x="140" y="280" width="240" height="14" rx="7" fill="url(#ps-accent)" opacity="0.75"/>
    <rect x="140" y="308" width="140" height="12" rx="6" fill="#1E2E46" opacity="0.7"/>
  </g>

  <g>
    <rect x="460" y="184" width="220" height="76" rx="14" fill="#0E1E31" stroke="#12324C" stroke-width="1.2"/>
    <rect x="480" y="206" width="140" height="14" rx="7" fill="#1E2E46" opacity="0.85"/>
    <rect x="480" y="228" width="170" height="12" rx="6" fill="#1E2E46" opacity="0.65"/>
  </g>

  <g>
    <rect x="460" y="280" width="220" height="84" rx="14" fill="#0E1E31" stroke="#12324C" stroke-width="1.2"/>
    <rect x="480" y="300" width="80" height="14" rx="7" fill="#00BBF9"/>
    <rect x="570" y="300" width="70" height="14" rx="7" fill="#FF006E"/>
    <rect x="480" y="324" width="160" height="12" rx="6" fill="#1E2E46" opacity="0.75"/>
    <rect x="480" y="344" width="130" height="12" rx="6" fill="#1E2E46" opacity="0.6"/>
  </g>

  <text x="400" y="386" text-anchor="middle" fill="#9FB1C6" font-family="Segoe UI, Arial, sans-serif" font-size="12">React · Vite · Supabase · fast navigation</text>
</svg>
